<?xml version="1.0" standalone="no"?>
<!DOCTYPE svg PUBLIC "-//W3C//DTD SVG 20010904//EN"
 "http://www.w3.org/TR/2001/REC-SVG-20010904/DTD/svg10.dtd">
<svg version="1.0" xmlns="http://www.w3.org/2000/svg"
 width="827.000000pt" height="827.000000pt" viewBox="0 0 827.000000 827.000000"
 preserveAspectRatio="xMidYMid meet">
<metadata>
Created by potrace 1.14, written by Peter Selinger 2001-2017
</metadata>
<g transform="translate(0.000000,827.000000) scale(0.100000,-0.100000)"
fill="#000000" stroke="none">
<path d="M3840 8244 c-19 -2 -84 -9 -145 -15 -935 -93 -1840 -533 -2510 -1220
-892 -914 -1306 -2142 -1149 -3409 87 -708 374 -1407 813 -1980 192 -251 406
-475 636 -665 132 -110 224 -179 229 -174 4 4 -4 551 -24 1614 -24 1321 -28
1625 -19 1790 22 418 95 705 266 1050 262 528 725 953 1277 1174 577 231 1205
236 1793 16 133 -50 205 -84 329 -155 644 -370 1069 -967 1208 -1695 26 -138
39 -294 40 -475 1 -728 -344 -1426 -939 -1902 -170 -135 -456 -296 -660 -369
-49 -18 -94 -36 -98 -39 -11 -10 1332 -1215 1353 -1214 41 1 344 211 547 378
131 109 389 365 500 498 470 563 771 1193 907 1903 90 474 92 1017 5 1505
-246 1370 -1189 2538 -2485 3078 -343 144 -691 235 -1094 288 -118 15 -686 29
-780 18z"/>
<path d="M3926 5234 c-523 -94 -916 -564 -916 -1094 0 -488 298 -909 755
-1068 612 -214 1282 144 1453 776 23 88 26 113 26 282 -1 170 -3 193 -28 285
-55 202 -155 372 -303 516 -132 128 -256 205 -428 264 -158 54 -387 70 -559
39z"/>
<path d="M2813 1778 c4 -155 12 -573 18 -928 6 -355 14 -648 18 -652 10 -11
199 -65 336 -97 168 -39 327 -67 490 -86 179 -21 739 -21 925 0 155 18 412 62
469 81 10 3 -8 25 -54 67 -1588 1434 -1944 1750 -2008 1783 -37 19 -97 53
-134 75 l-66 41 6 -284z"/>
</g>
</svg>
